<?xml version="1.0" encoding="UTF-8" standalone="no"?><svg xmlns="http://www.w3.org/2000/svg" xmlns:xlink="http://www.w3.org/1999/xlink" contentScriptType="application/ecmascript" contentStyleType="text/css" height="2664px" preserveAspectRatio="none" style="width:1926px;height:2664px;background:#FFFFFF;" version="1.1" viewBox="0 0 1926 2664" width="1926px" zoomAndPan="magnify"><defs><filter height="300%" id="fwu6ckawq4mt1" width="300%" x="-1" y="-1"><feGaussianBlur result="blurOut" stdDeviation="4.0"/><feColorMatrix in="blurOut" result="blurOut2" type="matrix" values="0 0 0 0 0 0 0 0 0 0 0 0 0 0 0 0 0 0 .4 0"/><feOffset dx="8.0" dy="8.0" in="blurOut2" result="blurOut3"/><feBlend in="SourceGraphic" in2="blurOut3" mode="normal"/></filter></defs><g><text fill="#000000" font-family="sans-serif" font-size="36" lengthAdjust="spacing" textLength="1106" x="397.4598" y="33.416">Apache/Skywalking-Eyes: Header fix process activity diagram</text><!--MD5=[12f9a589874d42fca04c670f992dfeae]
cluster singleFileProcess--><polygon fill="#FFFFFF" filter="url(#fwu6ckawq4mt1)" points="32,345.9063,322,345.9063,336,390.5,1878,390.5,1878,2343.9063,32,2343.9063,32,345.9063" style="stroke:#000000;stroke-width:3.0;"/><line style="stroke:#000000;stroke-width:3.0;" x1="32" x2="336" y1="390.5" y2="390.5"/><text fill="#000000" font-family="sans-serif" font-size="28" font-weight="bold" lengthAdjust="spacing" textLength="278" x="40" y="375.8965">singleFileProcess</text><rect fill="#FEFECE" filter="url(#fwu6ckawq4mt1)" height="67.9375" rx="25" ry="25" style="stroke:#A80036;stroke-width:3.0;" width="350" x="1467" y="415.9063"/><text fill="#000000" font-family="sans-serif" font-size="24" lengthAdjust="spacing" textLength="310" x="1487" y="458.1836">Start of single file process</text><polygon fill="#FEFECE" filter="url(#fwu6ckawq4mt1)" points="1642,565.9063,1666,589.9063,1642,613.9063,1618,589.9063,1642,565.9063" style="stroke:#A80036;stroke-width:3.0;"/><rect fill="#FEFECE" filter="url(#fwu6ckawq4mt1)" height="67.9375" rx="25" ry="25" style="stroke:#A80036;stroke-width:3.0;" width="400" x="1364" y="721.9063"/><text fill="#000000" font-family="sans-serif" font-size="24" lengthAdjust="spacing" textLength="360" x="1384" y="764.1836">Try to fix license header of file</text><polygon fill="#FEFECE" filter="url(#fwu6ckawq4mt1)" points="1546,871.9063,1570,895.9063,1546,919.9063,1522,895.9063,1546,871.9063" style="stroke:#A80036;stroke-width:3.0;"/><rect fill="#FEFECE" filter="url(#fwu6ckawq4mt1)" height="67.9375" rx="25" ry="25" style="stroke:#A80036;stroke-width:3.0;" width="474" x="1021" y="1027.9063"/><text fill="#000000" font-family="sans-serif" font-size="24" lengthAdjust="spacing" textLength="96" x="1041" y="1070.1836">Look for</text><text fill="#000000" font-family="sans-serif" font-size="24" font-style="italic" lengthAdjust="spacing" textLength="58" x="1145" y="1070.1836">After</text><text fill="#000000" font-family="sans-serif" font-size="24" lengthAdjust="spacing" textLength="272" x="1203" y="1070.1836">-pattern in file content</text><polygon fill="#FEFECE" filter="url(#fwu6ckawq4mt1)" points="1252,1177.9063,1276,1201.9063,1252,1225.9063,1228,1201.9063,1252,1177.9063" style="stroke:#A80036;stroke-width:3.0;"/><rect fill="#FEFECE" filter="url(#fwu6ckawq4mt1)" height="67.9375" rx="25" ry="25" style="stroke:#A80036;stroke-width:3.0;" width="770" x="65" y="2009.9063"/><text fill="#000000" font-family="sans-serif" font-size="24" lengthAdjust="spacing" textLength="730" x="85" y="2052.1836">fileContent := contentPart1 + licenseHeader + contentPart2</text><rect fill="#FEFECE" filter="url(#fwu6ckawq4mt1)" height="67.9375" rx="25" ry="25" style="stroke:#A80036;stroke-width:3.0;" width="508" x="1200" y="2243.9063"/><text fill="#000000" font-family="sans-serif" font-size="24" lengthAdjust="spacing" textLength="468" x="1220" y="2286.1836">End of fixing license header for this file</text><rect fill="#FEFECE" filter="url(#fwu6ckawq4mt1)" height="67.9375" rx="25" ry="25" style="stroke:#A80036;stroke-width:3.0;" width="322" x="1091" y="1443.9063"/><text fill="#000000" font-family="sans-serif" font-size="24" font-style="italic" lengthAdjust="spacing" textLength="58" x="1111" y="1486.1836">After</text><text fill="#000000" font-family="sans-serif" font-size="24" lengthAdjust="spacing" textLength="224" x="1169" y="1486.1836">-pattern not found</text><polygon fill="#FEFECE" filter="url(#fwu6ckawq4mt1)" points="1252,1593.9063,1276,1617.9063,1252,1641.9063,1228,1617.9063,1252,1593.9063" style="stroke:#A80036;stroke-width:3.0;"/><rect fill="#FEFECE" filter="url(#fwu6ckawq4mt1)" height="67.9375" rx="25" ry="25" style="stroke:#A80036;stroke-width:3.0;" width="882" x="875" y="2009.9063"/><text fill="#000000" font-family="sans-serif" font-size="24" lengthAdjust="spacing" textLength="166" x="895" y="2052.1836">fileContent :=</text><text fill="#000000" font-family="sans-serif" font-size="24" font-style="italic" lengthAdjust="spacing" textLength="140" x="1069" y="2052.1836">ensureAfter</text><text fill="#000000" font-family="sans-serif" font-size="24" lengthAdjust="spacing" textLength="224" x="1217" y="2052.1836">+ licenseHeader +</text><text fill="#000000" font-family="sans-serif" font-size="24" font-style="italic" lengthAdjust="spacing" textLength="158" x="1449" y="2052.1836">ensureBefore</text><text fill="#000000" font-family="sans-serif" font-size="24" lengthAdjust="spacing" textLength="122" x="1615" y="2052.1836">+ content</text><rect fill="#FEFECE" filter="url(#fwu6ckawq4mt1)" height="67.9375" rx="25" ry="25" style="stroke:#A80036;stroke-width:3.0;" width="512" x="1290" y="1859.9063"/><text fill="#000000" font-family="sans-serif" font-size="24" lengthAdjust="spacing" textLength="472" x="1310" y="1902.1836">fileContent := licenseHeader + content</text><ellipse cx="1642" cy="73.9063" fill="#000000" filter="url(#fwu6ckawq4mt1)" rx="20" ry="20" style="stroke:none;stroke-width:2.0;"/><rect fill="#FEFECE" filter="url(#fwu6ckawq4mt1)" height="95.875" rx="25" ry="25" style="stroke:#A80036;stroke-width:3.0;" width="468" x="1408" y="175.9063"/><text fill="#000000" font-family="sans-serif" font-size="24" lengthAdjust="spacing" textLength="428" x="1428" y="218.1836">Start of 'header fix'. Processing files</text><text fill="#000000" font-family="sans-serif" font-size="24" lengthAdjust="spacing" textLength="414" x="1435" y="246.1211">without proper headers file by file.</text><rect fill="#FEFECE" filter="url(#fwu6ckawq4mt1)" height="67.9375" rx="25" ry="25" style="stroke:#A80036;stroke-width:3.0;" width="358" x="1275" y="2417.9063"/><text fill="#000000" font-family="sans-serif" font-size="24" lengthAdjust="spacing" textLength="318" x="1295" y="2460.1836">End of 'header fix' process</text><ellipse cx="1454" cy="2587.9063" filter="url(#fwu6ckawq4mt1)" rx="20" ry="20" style="stroke:#000000;stroke-width:2.0;fill:none;"/><ellipse cx="1455" cy="2588.9063" fill="#000000" rx="12" ry="12" style="stroke:none;stroke-width:2.0;"/><!--MD5=[5c099d6e3ecc9b21a823c857cb488395]
link start to startNode--><path d="M1642,94.4063 C1642,112.1262 1642,139.8063 1642,164.8663 " fill="none" id="start-to-startNode" style="stroke:#A80036;stroke-width:2.0;"/><polygon fill="#A80036" points="1642,175.4063,1650,157.4063,1642,165.4063,1634,157.4063,1642,175.4063" style="stroke:#A80036;stroke-width:2.0;"/><!--MD5=[3482c68f1f1a5d199b69aa4bcb571ca5]
link startNode to startFileNode--><path d="M1642,272.4462 C1642,311.7263 1642,367.4862 1642,405.5462 " fill="none" id="startNode-to-startFileNode" style="stroke:#A80036;stroke-width:2.0;"/><polygon fill="#A80036" points="1642,415.7663,1650,397.7663,1642,405.7663,1634,397.7663,1642,415.7663" style="stroke:#A80036;stroke-width:2.0;"/><!--MD5=[abcecec77836b29aec65f4799f39a18c]
link startFileNode to #29846--><path d="M1642,484.1462 C1642,505.7463 1642,534.0662 1642,555.6663 " fill="none" id="startFileNode-to-#29846" style="stroke:#A80036;stroke-width:2.0;"/><polygon fill="#A80036" points="1642,565.6863,1650,547.6863,1642,555.6863,1634,547.6863,1642,565.6863" style="stroke:#A80036;stroke-width:2.0;"/><text fill="#000000" font-family="sans-serif" font-size="22" font-style="italic" lengthAdjust="spacing" textLength="204" x="1029.7813" y="557.1269">comment_style_id</text><text fill="#000000" font-family="sans-serif" font-size="22" lengthAdjust="spacing" textLength="360" x="1241.7813" y="557.1269">is set for this language/file type</text><!--MD5=[da050017bca13cecbfc2d4b4afd9ff2b]
link #29846 to Try to fix license header of file--><path d="M1634.8,606.8663 C1623.36,630.6263 1600.6,677.8863 1583.98,712.4263 " fill="none" id="#29846-to-Try to fix license header of file" style="stroke:#A80036;stroke-width:2.0;"/><polygon fill="#A80036" points="1579.46,721.8063,1594.4876,709.0716,1583.8059,712.8,1580.0776,702.1182,1579.46,721.8063" style="stroke:#A80036;stroke-width:2.0;"/><text fill="#000000" font-family="sans-serif" font-size="22" lengthAdjust="spacing" textLength="40" x="1610" y="676.3271">yes</text><!--MD5=[01b75c7741adab28238742ac311e13f2]
link Try to fix license header of file to #29851--><path d="M1559.74,790.1463 C1556.76,812.5463 1552.84,842.2063 1549.94,864.0663 " fill="none" id="Try to fix license header of file-to-#29851" style="stroke:#A80036;stroke-width:2.0;"/><polygon fill="#A80036" points="1548.62,874.1263,1558.9161,857.3337,1549.9342,864.213,1543.0549,855.231,1548.62,874.1263" style="stroke:#A80036;stroke-width:2.0;"/><text fill="#000000" font-family="sans-serif" font-size="22" font-style="italic" lengthAdjust="spacing" textLength="56" x="1586.9196" y="862.9216">After</text><text fill="#000000" font-family="sans-serif" font-size="22" lengthAdjust="spacing" textLength="262" x="1650.9196" y="862.9216">is set in CommentStyle</text><!--MD5=[91f15414b6b48f18297b9c903cf847df]
link #29851 to Look for <i>After</i>-pattern in file content--><path d="M1531.32,906.1663 C1493.8,927.2662 1392.56,984.2262 1324.4,1022.5663 " fill="none" id="#29851-to-Look for &lt;i&gt;After&lt;/i&gt;-pattern in file content" style="stroke:#A80036;stroke-width:2.0;"/><polygon fill="#A80036" points="1315.42,1027.6063,1335.0284,1025.7328,1324.1304,1022.6941,1327.1691,1011.7961,1315.42,1027.6063" style="stroke:#A80036;stroke-width:2.0;"/><text fill="#000000" font-family="sans-serif" font-size="22" lengthAdjust="spacing" textLength="40" x="1428" y="982.3271">yes</text><!--MD5=[98f67817230823ad36d9d85d955c7cbe]
link Look for <i>After</i>-pattern in file content to #29856--><path d="M1256.58,1096.1463 C1255.62,1118.0063 1254.34,1146.7863 1253.38,1168.4863 " fill="none" id="Look for &lt;i&gt;After&lt;/i&gt;-pattern in file content-to-#29856" style="stroke:#A80036;stroke-width:2.0;"/><polygon fill="#A80036" points="1252.94,1178.5063,1261.7034,1160.8653,1253.3682,1168.5154,1245.7181,1160.1802,1252.94,1178.5063" style="stroke:#A80036;stroke-width:2.0;"/><text fill="#000000" font-family="sans-serif" font-size="22" lengthAdjust="spacing" textLength="180" x="1031.7498" y="1158.9268">pattern is found</text><!--MD5=[502924c8b9cf5fae0850c3e373dd14c9]
link #29856 to fileContent := contentPart1 + licenseHeader + contentPart2--><path d="M1229.6,1204.1663 C1131.68,1205.9263 746,1219.1863 746,1319.9063 C746,1319.9063 746,1319.9063 746,1895.9063 C746,1950.3863 705.16,1984.5462 653.84,2005.9463 " fill="none" id="#29856-to-fileContent := contentPart1 + licenseHeader + contentPart2" style="stroke:#A80036;stroke-width:2.0;"/><polygon fill="#A80036" points="644.14,2009.8063,663.8208,2010.622,653.4385,2006.1268,657.9337,1995.7444,644.14,2009.8063" style="stroke:#A80036;stroke-width:2.0;"/><text fill="#000000" font-family="sans-serif" font-size="22" lengthAdjust="spacing" textLength="40" x="748" y="1626.3271">yes</text><!--MD5=[8db261669b199cf7c9c4b1d97aaa2c17]
link fileContent := contentPart1 + licenseHeader + contentPart2 to endFileProcessingNode--><path d="M590.14,2078.0063 C778.2,2121.0863 1110.88,2197.3063 1303.9,2241.5263 " fill="none" id="fileContent := contentPart1 + licenseHeader + contentPart2-to-endFileProcessingNode" style="stroke:#A80036;stroke-width:2.0;"/><polygon fill="#A80036" points="1314.14,2243.8663,1298.377,2232.054,1304.3918,2241.6364,1294.8093,2247.6512,1314.14,2243.8663" style="stroke:#A80036;stroke-width:2.0;"/><!--MD5=[acaeba916012a596708d3539c07abead]
link #29856 to <i>After</i>-pattern not found--><path d="M1252,1226.1663 C1252,1271.3063 1252,1374.3463 1252,1432.9863 " fill="none" id="#29856-to-&lt;i&gt;After&lt;/i&gt;-pattern not found" style="stroke:#A80036;stroke-width:2.0;"/><polygon fill="#A80036" points="1252,1443.4063,1260,1425.4063,1252,1433.4063,1244,1425.4063,1252,1443.4063" style="stroke:#A80036;stroke-width:2.0;"/><text fill="#000000" font-family="sans-serif" font-size="22" lengthAdjust="spacing" textLength="28" x="1254" y="1330.3271">no</text><!--MD5=[8517f81e847e4964ffa6df65100f0f54]
link <i>After</i>-pattern not found to #29865--><path d="M1252,1512.1463 C1252,1533.7463 1252,1562.0663 1252,1583.6663 " fill="none" id="&lt;i&gt;After&lt;/i&gt;-pattern not found-to-#29865" style="stroke:#A80036;stroke-width:2.0;"/><polygon fill="#A80036" points="1252,1593.6863,1260,1575.6863,1252,1583.6863,1244,1575.6863,1252,1593.6863" style="stroke:#A80036;stroke-width:2.0;"/><text fill="#000000" font-family="sans-serif" font-size="22" font-style="italic" lengthAdjust="spacing" textLength="144" x="999.5875" y="1576.6051">ensure_after</text><text fill="#000000" font-family="sans-serif" font-size="22" lengthAdjust="spacing" textLength="60" x="1151.5875" y="1576.6051">is set</text><!--MD5=[67bfc7c51f96455a8a84916bf19bca7c]
link #29865 to fileContent := <i>ensureAfter</i> + licenseHeader + <i>ensureBefore</i> + content--><path d="M1250.9,1641.1463 C1248.78,1691.6063 1246.28,1822.3463 1270,1927.9063 C1275.6,1952.8263 1286.02,1979.3663 1295.52,2000.5462 " fill="none" id="#29865-to-fileContent := &lt;i&gt;ensureAfter&lt;/i&gt; + licenseHeader + &lt;i&gt;ensureBefore&lt;/i&gt; + content" style="stroke:#A80036;stroke-width:2.0;"/><polygon fill="#A80036" points="1299.8,2009.8863,1299.5599,1990.19,1295.6275,2000.7983,1285.0192,1996.8659,1299.8,2009.8863" style="stroke:#A80036;stroke-width:2.0;"/><text fill="#000000" font-family="sans-serif" font-size="22" lengthAdjust="spacing" textLength="40" x="1256" y="1814.3271">yes</text><!--MD5=[b4e54114f299551e6e4bde999198032e]
link fileContent := <i>ensureAfter</i> + licenseHeader + <i>ensureBefore</i> + content to endFileProcessingNode--><path d="M1335.78,2078.8663 C1360.4,2119.9063 1402.5,2190.0663 1429.24,2234.6463 " fill="none" id="fileContent := &lt;i&gt;ensureAfter&lt;/i&gt; + licenseHeader + &lt;i&gt;ensureBefore&lt;/i&gt; + content-to-endFileProcessingNode" style="stroke:#A80036;stroke-width:2.0;"/><polygon fill="#A80036" points="1434.7,2243.7463,1432.299,2224.1954,1429.555,2235.1713,1418.5791,2232.4273,1434.7,2243.7463" style="stroke:#A80036;stroke-width:2.0;"/><!--MD5=[8d095d4578131c0a88cdbdc328656250]
link #29865 to defaultHeaderFix--><path d="M1263.88,1630.9063 C1303.84,1667.8663 1434.58,1788.8263 1503.16,1852.2663 " fill="none" id="#29865-to-defaultHeaderFix" style="stroke:#A80036;stroke-width:2.0;"/><polygon fill="#A80036" points="1511.2,1859.7063,1503.429,1841.6062,1503.8629,1852.9116,1492.5575,1853.3455,1511.2,1859.7063" style="stroke:#A80036;stroke-width:2.0;"/><text fill="#000000" font-family="sans-serif" font-size="22" lengthAdjust="spacing" textLength="28" x="1396" y="1746.3271">no</text><!--MD5=[f3ea3f428a747b11c10fd648682abb4f]
link #29851 to defaultHeaderFix--><path d="M1546,919.9263 C1546,951.0863 1546,1009.8463 1546,1059.9063 C1546,1059.9063 1546,1059.9063 1546,1739.9063 C1546,1776.8063 1546,1818.7463 1546,1849.2063 " fill="none" id="#29851-to-defaultHeaderFix" style="stroke:#A80036;stroke-width:2.0;"/><polygon fill="#A80036" points="1546,1859.8863,1554,1841.8863,1546,1849.8863,1538,1841.8863,1546,1859.8863" style="stroke:#A80036;stroke-width:2.0;"/><text fill="#000000" font-family="sans-serif" font-size="22" lengthAdjust="spacing" textLength="28" x="1548" y="1398.3271">no</text><!--MD5=[ac799eda91e124e7adac6bea57d61b94]
link defaultHeaderFix to endFileProcessingNode--><path d="M1671.2,1928.1063 C1712.46,1945.3063 1753.92,1971.2463 1778,2009.9063 C1793.98,2035.5662 1792.78,2051.5463 1778,2077.9063 C1733.1,2157.9663 1641.18,2209.5063 1566.68,2239.8863 " fill="none" id="defaultHeaderFix-to-endFileProcessingNode" style="stroke:#A80036;stroke-width:2.0;"/><polygon fill="#A80036" points="1556.76,2243.8463,1576.4437,2244.589,1566.0448,2240.1323,1570.5015,2229.7334,1556.76,2243.8463" style="stroke:#A80036;stroke-width:2.0;"/><!--MD5=[bbfcc793c6fbc34788ed27d38c83fa94]
link #29846 to endFileProcessingNode--><path d="M1658.5,598.1063 C1701.54,615.4862 1814,668.9862 1814,753.9063 C1814,753.9063 1814,753.9063 1814,1479.9063 C1814,1697.2063 1844,1750.6063 1844,1967.9063 C1844,1967.9063 1844,1967.9063 1844,2161.9063 C1844,2198.3663 1780.42,2223.9663 1704.62,2241.5263 " fill="none" id="#29846-to-endFileProcessingNode" style="stroke:#A80036;stroke-width:2.0;"/><polygon fill="#A80036" points="1694.34,2243.8463,1713.66,2247.6851,1704.0944,2241.6436,1710.1359,2232.078,1694.34,2243.8463" style="stroke:#A80036;stroke-width:2.0;"/><text fill="#000000" font-family="sans-serif" font-size="22" lengthAdjust="spacing" textLength="28" x="1816" y="1486.3271">no</text><!--MD5=[452ad01fc2e8c4b01f4d65034bfed267]
link endFileProcessingNode to endNode--><path d="M1454,2312.6862 C1454,2339.6663 1454,2378.1063 1454,2407.4463 " fill="none" id="endFileProcessingNode-to-endNode" style="stroke:#A80036;stroke-width:2.0;"/><polygon fill="#A80036" points="1454,2417.8063,1462,2399.8063,1454,2407.8063,1446,2399.8063,1454,2417.8063" style="stroke:#A80036;stroke-width:2.0;"/><!--MD5=[dfbae203bb92204d8d6efa559a84e5ab]
link endNode to end--><path d="M1454,2486.5263 C1454,2508.3863 1454,2536.8463 1454,2557.7063 " fill="none" id="endNode-to-end" style="stroke:#A80036;stroke-width:2.0;"/><polygon fill="#A80036" points="1454,2567.8463,1462,2549.8463,1454,2557.8463,1446,2549.8463,1454,2567.8463" style="stroke:#A80036;stroke-width:2.0;"/><text fill="#888888" font-family="sans-serif" font-size="20" lengthAdjust="spacing" textLength="242" x="829.4598" y="2648.4707">apache/skywalking-eyes</text><!--MD5=[b27796ee25c5f32a99620423d8793b98]
@startuml

title "Apache/Skywalking-Eyes: Header fix process activity diagram"
footer apache/skywalking-eyes
scale 2

(*) - -> "Start of 'header fix'. Processing files\nwithout proper headers file by file." as startNode

partition singleFileProcess {
startNode - -> "Start of single file process" as startFileNode

if "<i>comment_style_id</i> is set for this language/file type" then
    - ->[yes] "Try to fix license header of file"

    if <i>After</i> is set in CommentStyle then
        - ->[yes] Look for <i>After</i>-pattern in file content

        if pattern is found then
            - - - - - - ->[yes] "fileContent := contentPart1 + licenseHeader + contentPart2"
            - - -> "End of fixing license header for this file" as endFileProcessingNode
        else
            - - ->[no] "<i>After</i>-pattern not found"

            if "<i>ensure_after</i> is set" then
                - - - ->[yes] "fileContent := <i>ensureAfter</i> + licenseHeader + <i>ensureBefore</i> + content"
                - - -> endFileProcessingNode
            else
                - - ->[no] "fileContent := licenseHeader + content" as defaultHeaderFix
            endif

        endif
    else
        - ->[no] defaultHeaderFix
        - - -> endFileProcessingNode
    endif
else
    - - - ->[no] endFileProcessingNode
endif
}

endFileProcessingNode - -> "End of 'header fix' process" as endNode
endNode - -> (*)

@enduml

PlantUML version 1.2021.7(Sun May 23 14:40:07 CEST 2021)
(GPL source distribution)
Java Runtime: OpenJDK Runtime Environment
JVM: OpenJDK 64-Bit Server VM
Default Encoding: UTF-8
Language: de
Country: DE
--></g></svg>